<svg width="24" height="25" viewBox="0 0 24 25" fill="none" xmlns="http://www.w3.org/2000/svg"><path fill-rule="evenodd" clip-rule="evenodd" d="M4.125 5.40332C3.50368 5.40332 3 5.907 3 6.52832V17.7783C3 18.3996 3.50368 18.9033 4.125 18.9033H19.875C20.4963 18.9033 21 18.3996 21 17.7783V6.52832C21 5.907 20.4963 5.40332 19.875 5.40332H4.125ZM1.5 6.52832C1.5 5.07857 2.67525 3.90332 4.125 3.90332H19.875C21.3247 3.90332 22.5 5.07857 22.5 6.52832V17.7783C22.5 19.2281 21.3247 20.4033 19.875 20.4033H4.125C2.67525 20.4033 1.5 19.2281 1.5 17.7783V6.52832Z" fill="#C4C4CC"></path><path fill-rule="evenodd" clip-rule="evenodd" d="M4.65799 7.19287C4.91229 6.8659 5.3835 6.807 5.71046 7.06131L12 11.9532L18.2895 7.06131C18.6165 6.807 19.0877 6.8659 19.342 7.19287C19.5963 7.51983 19.5374 7.99103 19.2105 8.24533L12.4605 13.4953C12.1896 13.706 11.8104 13.706 11.5395 13.4953L4.78954 8.24533C4.46258 7.99103 4.40368 7.51983 4.65799 7.19287Z" fill="#C4C4CC"></path></svg>