<svg width="48" height="48" viewBox="0 0 48 48" fill="none" xmlns="http://www.w3.org/2000/svg">
<rect width="48" height="48" rx="5.625" fill="#633BBC"/>
<path d="M11.1206 21.177V34.2027C11.1206 35.7508 12.3814 37.0048 13.9381 37.0048H33.6594C35.2161 37.0048 36.4769 35.7508 36.4769 34.2027V21.177M19.7422 28.4303L11.9518 36.1781M35.6472 36.1781L27.8567 28.4303M15.3469 16.8604L12.3687 18.8527C10.7092 19.9623 10.7092 22.3917 12.3687 23.5028L20.6438 29.0398C22.5513 30.3161 25.0448 30.3161 26.9523 29.0398L35.2273 23.5028C36.8869 22.3917 36.8869 19.9637 35.2273 18.8527L32.252 16.8604M32.2521 25.4951V13.0495C32.2521 12.2761 31.6209 11.6484 30.8433 11.6484H16.7557C15.978 11.6484 15.3469 12.2761 15.3469 13.0495V25.4951" stroke="#E1E1E6" stroke-width="1.5" stroke-linecap="round" stroke-linejoin="round"/>
<path d="M19.5735 16.9312H28.0256" stroke="#04D361" stroke-width="1.5" stroke-linecap="round" stroke-linejoin="round"/>
<path d="M19.5735 21.9496H28.0256" stroke="#04D361" stroke-width="1.5" stroke-linecap="round" stroke-linejoin="round"/>
</svg>
