<svg width="33" height="41" viewBox="0 0 33 41" fill="none" xmlns="http://www.w3.org/2000/svg"><path d="M7.34496 26.3877C7.21172 26.2807 7.02889 26.2623 6.87705 26.3357L5.23473 27.1217C5.14177 27.1676 5.0674 27.2471 5.03022 27.3419L1.52867 35.8716C1.51937 35.89 1.51937 35.9144 1.52867 35.9358C1.54416 35.9817 1.59374 36.0062 1.63712 35.9878L2.4304 35.6881C2.45519 35.6789 2.48617 35.6759 2.50786 35.6912C2.54815 35.7156 2.56054 35.7707 2.53575 35.8104L0.0133965 39.875C-0.0392817 39.9606 0.0753708 40.0523 0.14974 39.9789L9.21658 30.9875C9.30025 30.911 9.35293 30.804 9.36222 30.6908L9.53575 28.3756C9.54505 28.235 9.48617 28.1004 9.37462 28.0117L7.34496 26.3908V26.3877Z" fill="#7C7C8A"></path><path d="M8.0455 19.6044C7.89986 19.5126 7.72013 19.6564 7.78211 19.8154L8.56608 21.8461C8.62186 21.9899 8.63115 22.1459 8.59087 22.2927L7.90915 24.932C7.86577 25.1033 7.92775 25.2837 8.07029 25.3938L10.0194 26.8893C10.196 27.0239 10.4439 27.0178 10.6143 26.874L12.6657 25.1063C12.7834 25.0054 12.9291 24.9412 13.084 24.9259L15.3957 24.669C15.563 24.6506 15.6126 24.4366 15.4731 24.3479L8.0455 19.6075V19.6044Z" fill="#7C7C8A"></path><path d="M32.0602 1.06769L26.8265 0.306167C26.6653 0.2817 26.5042 0.345925 26.4546 0.3918L24.2205 3.25745C24.0686 3.45013 24.0314 3.68256 24.0841 3.89358C24.1368 4.10461 23.954 4.29728 23.7371 4.24835L21.8995 3.84771C21.6082 3.78348 21.3046 3.89358 21.1217 4.12602L13.8862 13.3377C13.7499 13.512 13.5082 13.5732 13.3037 13.4814L10.552 12.2459C10.3103 12.1388 10.0283 12.1633 9.80833 12.3132L8.42321 13.2643C8.1939 13.4233 7.89333 13.4417 7.64543 13.3163L6.95132 12.9676C6.5144 12.7474 5.98142 12.9921 5.87296 13.4661L5.37097 15.6376C5.25322 16.1452 5.47633 16.6713 5.92564 16.9465L6.96991 17.5796L10.3568 19.6378L12.0115 20.641C12.467 20.9193 13.0558 20.8704 13.4586 20.5187L16.2165 18.127C16.4427 17.9313 16.7649 17.8915 17.0314 18.0261L17.8619 18.442C18.1439 18.5827 18.4847 18.5369 18.714 18.3228L20.1147 17.0322C20.3347 16.8272 20.66 16.7753 20.9358 16.9006L23.0182 17.8365C23.3342 17.9772 23.7092 17.8885 23.9199 17.6163L24.8805 16.396L32.1594 7.17823C32.5002 6.74394 32.2678 6.10781 31.7255 5.9916L30.1018 5.63683C29.7641 5.56343 29.6215 5.16279 29.8384 4.89672L32.3577 1.82004C32.587 1.54173 32.4197 1.12274 32.0602 1.07075V1.06769Z" fill="#7C7C8A"></path></svg>