<svg width="24" height="25" viewBox="0 0 24 25" fill="none" xmlns="http://www.w3.org/2000/svg"><path d="M12.0001 12.1533C9.52041 12.1533 7.33603 9.82363 7.12509 6.95957C7.01728 5.50644 7.46728 4.16113 8.39072 3.17207C9.3001 2.19238 10.5845 1.65332 12.0001 1.65332C13.4064 1.65332 14.686 2.19707 15.6001 3.18145C16.5282 4.17988 16.9782 5.52051 16.8704 6.95957C16.6595 9.82363 14.4751 12.1533 12.0001 12.1533ZM12.0001 3.15332C11.0063 3.15332 10.111 3.52363 9.4876 4.19395C8.85478 4.87363 8.54541 5.82051 8.62041 6.85176C8.77041 8.91426 10.3173 10.658 11.9954 10.658C13.6735 10.658 15.2204 8.91426 15.3704 6.85176C15.4454 5.83457 15.136 4.89238 14.4939 4.20332C13.8751 3.52363 12.9845 3.15332 12.0001 3.15332Z" fill="#C4C4CC"></path><path d="M20.2501 22.6532H3.7501C3.3001 22.6532 2.89698 22.4657 2.61573 22.1329C2.31104 21.7673 2.18917 21.2704 2.27823 20.7689C2.67198 18.5751 3.90948 16.7282 5.8501 15.4392C7.5751 14.2907 9.75948 13.6579 12.0001 13.6579C14.2407 13.6579 16.4251 14.2907 18.1501 15.4392C20.0907 16.7329 21.3282 18.5751 21.722 20.7689C21.811 21.2704 21.6892 21.7673 21.3845 22.1329C21.1032 22.4657 20.7001 22.6532 20.2501 22.6532ZM3.75948 21.1532H20.2407C20.2501 21.1298 20.2548 21.0923 20.2454 21.0314C19.5189 16.9954 15.4595 15.1532 12.0001 15.1532C8.54073 15.1532 4.48135 16.9954 3.75479 21.0314C3.74542 21.0923 3.7501 21.1298 3.75948 21.1532Z" fill="#C4C4CC"></path></svg>